<?xml version="1.0" encoding="UTF-8"?>
<svg id="Layer_1" data-name="Layer 1" xmlns="http://www.w3.org/2000/svg" xmlns:xlink="http://www.w3.org/1999/xlink" viewBox="0 0 2147.82 1253.54">
  <defs>
    <style>
      .cls-1 {
        fill: none;
      }

      .cls-2 {
        fill: url(#linear-gradient);
      }

      .cls-3 {
        fill: #fff;
      }

      .cls-4 {
        fill: url(#linear-gradient-8);
      }

      .cls-5 {
        fill: url(#linear-gradient-9);
      }

      .cls-6 {
        fill: url(#linear-gradient-3);
      }

      .cls-7 {
        fill: url(#linear-gradient-4);
      }

      .cls-8 {
        fill: url(#linear-gradient-2);
      }

      .cls-9 {
        fill: url(#linear-gradient-6);
      }

      .cls-10 {
        fill: url(#linear-gradient-7);
      }

      .cls-11 {
        fill: url(#linear-gradient-5);
      }

      .cls-12 {
        fill: url(#linear-gradient-14);
      }

      .cls-13 {
        fill: url(#linear-gradient-18);
      }

      .cls-14 {
        fill: url(#linear-gradient-22);
      }

      .cls-15 {
        fill: url(#linear-gradient-20);
      }

      .cls-16 {
        fill: url(#linear-gradient-21);
      }

      .cls-17 {
        fill: url(#linear-gradient-23);
      }

      .cls-18 {
        fill: url(#linear-gradient-15);
      }

      .cls-19 {
        fill: url(#linear-gradient-19);
      }

      .cls-20 {
        fill: url(#linear-gradient-16);
      }

      .cls-21 {
        fill: url(#linear-gradient-17);
      }

      .cls-22 {
        fill: url(#linear-gradient-13);
      }

      .cls-23 {
        fill: url(#linear-gradient-12);
      }

      .cls-24 {
        fill: url(#linear-gradient-10);
      }

      .cls-25 {
        fill: url(#linear-gradient-11);
      }
    </style>
    <linearGradient id="linear-gradient" x1="1589.2" y1="793.97" x2="1745.58" y2="793.97" gradientTransform="translate(0 1254) scale(1 -1)" gradientUnits="userSpaceOnUse">
      <stop offset="0" stop-color="#75a4ea"/>
      <stop offset="1" stop-color="#1242e2"/>
    </linearGradient>
    <linearGradient id="linear-gradient-2" x1="1589.2" y1="787.06" x2="1745.58" y2="787.06" gradientTransform="translate(0 1254) scale(1 -1)" gradientUnits="userSpaceOnUse">
      <stop offset="0" stop-color="#75a4ea"/>
      <stop offset="1" stop-color="#1242e2"/>
    </linearGradient>
    <linearGradient id="linear-gradient-3" x1="1589.2" y1="792.93" x2="1745.58" y2="792.93" gradientTransform="translate(0 1254) scale(1 -1)" gradientUnits="userSpaceOnUse">
      <stop offset="0" stop-color="#75a4ea"/>
      <stop offset="1" stop-color="#1242e2"/>
    </linearGradient>
    <linearGradient id="linear-gradient-4" x1="1589.2" y1="792.55" x2="1745.58" y2="792.55" gradientTransform="translate(0 1254) scale(1 -1)" gradientUnits="userSpaceOnUse">
      <stop offset="0" stop-color="#75a4ea"/>
      <stop offset="1" stop-color="#1242e2"/>
    </linearGradient>
    <linearGradient id="linear-gradient-5" x1="1589.2" y1="788.56" x2="1745.58" y2="788.56" gradientTransform="translate(0 1254) scale(1 -1)" gradientUnits="userSpaceOnUse">
      <stop offset="0" stop-color="#75a4ea"/>
      <stop offset="1" stop-color="#1242e2"/>
    </linearGradient>
    <linearGradient id="linear-gradient-6" x1="1589.2" y1="797.08" x2="1745.58" y2="797.08" gradientTransform="translate(0 1254) scale(1 -1)" gradientUnits="userSpaceOnUse">
      <stop offset="0" stop-color="#75a4ea"/>
      <stop offset="1" stop-color="#1242e2"/>
    </linearGradient>
    <linearGradient id="linear-gradient-7" x1="1589.2" y1="789.8" x2="1745.58" y2="789.8" gradientTransform="translate(0 1254) scale(1 -1)" gradientUnits="userSpaceOnUse">
      <stop offset="0" stop-color="#75a4ea"/>
      <stop offset="1" stop-color="#1242e2"/>
    </linearGradient>
    <linearGradient id="linear-gradient-8" x1="1589.2" y1="800.45" x2="1745.58" y2="800.45" gradientTransform="translate(0 1254) scale(1 -1)" gradientUnits="userSpaceOnUse">
      <stop offset="0" stop-color="#75a4ea"/>
      <stop offset="1" stop-color="#1242e2"/>
    </linearGradient>
    <linearGradient id="linear-gradient-9" x1="1589.2" y1="790.3" x2="1745.58" y2="790.3" gradientTransform="translate(0 1254) scale(1 -1)" gradientUnits="userSpaceOnUse">
      <stop offset="0" stop-color="#75a4ea"/>
      <stop offset="1" stop-color="#1242e2"/>
    </linearGradient>
    <linearGradient id="linear-gradient-10" x1="1589.2" y1="790.6" x2="1745.58" y2="790.6" gradientTransform="translate(0 1254) scale(1 -1)" gradientUnits="userSpaceOnUse">
      <stop offset="0" stop-color="#75a4ea"/>
      <stop offset="1" stop-color="#1242e2"/>
    </linearGradient>
    <linearGradient id="linear-gradient-11" x1="1589.2" y1="801.77" x2="1745.58" y2="801.77" gradientTransform="translate(0 1254) scale(1 -1)" gradientUnits="userSpaceOnUse">
      <stop offset="0" stop-color="#75a4ea"/>
      <stop offset="1" stop-color="#1242e2"/>
    </linearGradient>
    <linearGradient id="linear-gradient-12" x1="1589.2" y1="798.8" x2="1745.58" y2="798.8" gradientTransform="translate(0 1254) scale(1 -1)" gradientUnits="userSpaceOnUse">
      <stop offset="0" stop-color="#75a4ea"/>
      <stop offset="1" stop-color="#1242e2"/>
    </linearGradient>
    <linearGradient id="linear-gradient-13" x1="1589.2" y1="791.09" x2="1745.58" y2="791.09" gradientTransform="translate(0 1254) scale(1 -1)" gradientUnits="userSpaceOnUse">
      <stop offset="0" stop-color="#75a4ea"/>
      <stop offset="1" stop-color="#1242e2"/>
    </linearGradient>
    <linearGradient id="linear-gradient-14" x1="1589.2" y1="795.13" x2="1745.58" y2="795.13" gradientTransform="translate(0 1254) scale(1 -1)" gradientUnits="userSpaceOnUse">
      <stop offset="0" stop-color="#75a4ea"/>
      <stop offset="1" stop-color="#1242e2"/>
    </linearGradient>
    <linearGradient id="linear-gradient-15" x1="1589.2" y1="788.11" x2="1745.58" y2="788.11" gradientTransform="translate(0 1254) scale(1 -1)" gradientUnits="userSpaceOnUse">
      <stop offset="0" stop-color="#75a4ea"/>
      <stop offset="1" stop-color="#1242e2"/>
    </linearGradient>
    <linearGradient id="linear-gradient-16" x1="1589.2" y1="791.24" x2="1745.58" y2="791.24" gradientTransform="translate(0 1254) scale(1 -1)" gradientUnits="userSpaceOnUse">
      <stop offset="0" stop-color="#75a4ea"/>
      <stop offset="1" stop-color="#1242e2"/>
    </linearGradient>
    <linearGradient id="linear-gradient-17" x1="1589.2" y1="794.53" x2="1745.58" y2="794.53" gradientTransform="translate(0 1254) scale(1 -1)" gradientUnits="userSpaceOnUse">
      <stop offset="0" stop-color="#75a4ea"/>
      <stop offset="1" stop-color="#1242e2"/>
    </linearGradient>
    <linearGradient id="linear-gradient-18" x1="1589.2" y1="798.19" x2="1745.58" y2="798.19" gradientTransform="translate(0 1254) scale(1 -1)" gradientUnits="userSpaceOnUse">
      <stop offset="0" stop-color="#75a4ea"/>
      <stop offset="1" stop-color="#1242e2"/>
    </linearGradient>
    <linearGradient id="linear-gradient-19" x1="1122.02" y1="926.16" x2="1122.02" y2="466.72" gradientTransform="translate(0 1254) scale(1 -1)" gradientUnits="userSpaceOnUse">
      <stop offset="0" stop-color="#75a4ea"/>
      <stop offset="1" stop-color="#1242e2"/>
    </linearGradient>
    <linearGradient id="linear-gradient-20" x1="418.09" y1="584.37" x2="1595.02" y2="584.37" gradientTransform="translate(0 1254) scale(1 -1)" gradientUnits="userSpaceOnUse">
      <stop offset="0" stop-color="#75a4ea"/>
      <stop offset="1" stop-color="#1242e2"/>
    </linearGradient>
    <linearGradient id="linear-gradient-21" x1="418.09" y1="1006.12" x2="1595.02" y2="1006.12" gradientTransform="translate(0 1254) scale(1 -1)" gradientUnits="userSpaceOnUse">
      <stop offset="0" stop-color="#75a4ea"/>
      <stop offset="1" stop-color="#1242e2"/>
    </linearGradient>
    <linearGradient id="linear-gradient-22" x1="418.09" y1="643.43" x2="1595.02" y2="643.43" gradientTransform="translate(0 1254) scale(1 -1)" gradientUnits="userSpaceOnUse">
      <stop offset="0" stop-color="#75a4ea"/>
      <stop offset="1" stop-color="#1242e2"/>
    </linearGradient>
    <linearGradient id="linear-gradient-23" x1="1590.29" y1="784.76" x2="1739.29" y2="784.76" gradientTransform="translate(0 1254) scale(1 -1)" gradientUnits="userSpaceOnUse">
      <stop offset="0" stop-color="#75a4ea"/>
      <stop offset="1" stop-color="#1242e2"/>
    </linearGradient>
  </defs>
  <path class="cls-1" d="M1715.25,467.33c0,4.07-.56,8-1.52,11.77,15.1-3.65,23.05-8.57,23.05-11.77,0-.25-.11-.52-.2-.79-.61-1.45-2.92-3.77-8.49-6.29-.33-.15-.63-.3-.98-.44-.52-.22-1.13-.45-1.7-.67-3.23-1.25-7.11-2.47-11.67-3.58,.96,3.77,1.52,7.7,1.52,11.77h-.01Z"/>
  <path class="cls-1" d="M1621.05,455.55c-5.72,1.38-10.37,2.95-13.99,4.53-6.63,2.95-9.05,5.73-9.05,7.24,0,3.2,7.95,8.12,23.04,11.77-.96-3.77-1.52-7.7-1.52-11.77s.56-8,1.52-11.77Z"/>
  <path class="cls-1" d="M636.49,586.04c18.4,15.93,37.26,31.34,56.67,46.1l-56.67-99.26v53.16Z"/>
  <path class="cls-2" d="M1727.1,459.81c.35,.15,.65,.29,.98,.44-.33-.15-.63-.29-.98-.44Z"/>
  <path class="cls-8" d="M1736.57,466.54c.09,.27,.2,.54,.2,.79,0-.22-.08-.49-.2-.79Z"/>
  <path class="cls-6" d="M1590.59,462.27c.43-.83,1-1.62,1.64-2.41-.65,.78-1.2,1.58-1.64,2.41Z"/>
  <path class="cls-7" d="M1743.71,461.32c.05,.08,.11,.17,.16,.25-.05-.09-.11-.17-.16-.25Z"/>
  <path class="cls-11" d="M1589.2,467.33c0-1.31,.34-2.56,.8-3.79-.47,1.22-.8,2.47-.8,3.79Z"/>
  <path class="cls-9" d="M1594.16,457.87c.72-.65,1.49-1.29,2.37-1.91-.87,.61-1.64,1.26-2.37,1.91Z"/>
  <path class="cls-10" d="M1744.96,463.94c.06,.17,.14,.34,.19,.51-.05-.17-.13-.34-.19-.51Z"/>
  <path class="cls-4" d="M1598.9,454.44c1.05-.61,2.2-1.21,3.42-1.79-1.21,.58-2.36,1.17-3.42,1.79Z"/>
  <path class="cls-5" d="M1607.06,460.08c-5.94,2.6-9.05,5.25-9.05,7.24,0-1.51,2.43-4.3,9.05-7.24Z"/>
  <path class="cls-24" d="M1736.57,466.54c-.65-1.83-3.52-4.07-8.49-6.29,5.57,2.53,7.88,4.84,8.49,6.29Z"/>
  <path class="cls-25" d="M1603.93,451.81c-.61,.27-1.04,.57-1.61,.84,.55-.26,1.06-.54,1.64-.79l-.02-.06h-.01Z"/>
  <path class="cls-23" d="M1596.53,455.96c.74-.52,1.53-1.02,2.37-1.52-.85,.49-1.64,1-2.37,1.52Z"/>
  <path class="cls-22" d="M1590,463.54c.17-.43,.37-.85,.59-1.27-.22,.42-.43,.84-.59,1.27Z"/>
  <path class="cls-12" d="M1594.16,457.87c-.72,.65-1.37,1.31-1.93,2,.57-.68,1.21-1.35,1.93-2Z"/>
  <path class="cls-18" d="M1745.15,464.45c.27,.93,.43,1.89,.43,2.88,0-.98-.17-1.94-.43-2.88Z"/>
  <path class="cls-20" d="M1743.87,461.57c.47,.76,.82,1.56,1.1,2.37-.27-.81-.63-1.6-1.1-2.37Z"/>
  <path class="cls-21" d="M1725.4,459.13c.58,.23,1.18,.45,1.7,.67-.54-.23-1.12-.45-1.7-.67Z"/>
  <path class="cls-13" d="M1743.71,461.32c-2.67-4.23-8.22-7.93-16.74-11.03l-.02,.04c7.96,2.92,13.92,6.59,16.75,10.99h.01Z"/>
  <g>
    <path class="cls-3" d="M629.29,329.43c-2.78-4.8-6.19-8.9-10.23-12.31s-8.52-6.06-13.45-7.96c-4.93-1.9-10.04-3.03-15.34-3.41-5.3-.38-10.61,.06-15.92,1.33-10.86,3.03-19.64,8.97-26.33,17.8-6.69,8.84-10.04,18.94-10.04,30.31v131.98c15.74,19.03,32.66,37.23,50.2,54.65,15.57,15.31,31.79,29.92,48.3,44.22v-53.16l56.67,99.26c57.06,43.37,118.05,81.93,180.86,116.6,18.87,10.41,38,20.35,57.25,30.05l103.95-182.88v-192.34l-181.64,315.72-224.29-389.85h.01Z"/>
    <path class="cls-3" d="M1518.9,757.93h-306.12c-1.4,0-2.63-.2-3.95-.29v47.82c0,18.37-5.78,35.4-15.56,49.45,6.81,.99,13.33,1.52,19.51,1.52h306.12c27.2,0,49.25-22.05,49.25-49.25s-22.05-49.25-49.25-49.25h0Z"/>
    <path class="cls-3" d="M1518.9,313.14h-306.12c-5.25,0-10.27,.28-15.18,.69,7.11,12.59,11.23,27.09,11.23,42.55v55.54c1.33-.08,2.55-.28,3.95-.28h306.12c27.2,0,49.25-22.05,49.25-49.25s-22.05-49.25-49.25-49.25h0Z"/>
    <path class="cls-3" d="M724.16,686.46l46.49,81.44,41.25,72.25c4.29,7.83,10.16,13.77,17.62,17.81,7.45,4.04,15.47,6.06,24.06,6.06s17.11-2.03,24.81-6.06c7.7-4.04,13.7-9.98,18-17.81l.83-1.45,21.1-37.12c-19.17-9.6-38.22-19.43-57.03-29.72-47.16-25.98-92.92-54.53-137.12-85.4h-.01Z"/>
    <path class="cls-3" d="M537.98,524.73v282.46c0,27.2,22.05,49.25,49.25,49.25s49.25-22.05,49.25-49.25v-187.38c-22.84-19.07-44.93-39.07-65.96-60.27-11.11-11.28-22-22.87-32.55-34.8h.01Z"/>
    <path class="cls-3" d="M1713.73,455.55c-.87-3.43-2.09-6.7-3.65-9.79-7.89-15.59-24.02-26.3-42.69-26.3s-34.8,10.71-42.69,26.3c-1.56,3.09-2.79,6.36-3.65,9.79-.96,3.77-1.52,7.7-1.52,11.77s.56,8,1.52,11.77c.87,3.43,2.09,6.7,3.65,9.79,7.89,15.59,24.02,26.3,42.69,26.3s34.8-10.71,42.69-26.3c1.56-3.09,2.78-6.36,3.65-9.79,.96-3.77,1.52-7.7,1.52-11.77s-.56-8-1.52-11.77Z"/>
  </g>
  <g>
    <path class="cls-19" d="M1122.02,856.44c28.15,0,50.98-22.82,50.98-50.98V356.38c0-28.15-22.82-50.98-50.98-50.98s-50.98,22.82-50.98,50.98v449.08c0,28.15,22.82,50.98,50.98,50.98h0Z"/>
    <path class="cls-15" d="M1491.04,555.99c41.63,39.33,80.73,81.49,112.35,128.2,15.59,23.36,29.79,47.66,39.62,73.16,10.04,25.32,15.62,52.07,13.29,77.06-1.19,12.47-4.59,24.31-10.02,35.07-4.52,8.53-10.26,16.31-16.96,23.38,22.95-14.88,40.97-36.88,47.83-63.21,6.84-25.28,3.75-52.74-4.03-78.64-.76-1.78-1.49-3.58-2.28-5.34-12.42-27.79-28.71-52.96-46.52-76.56-36.32-46.7-78.57-87.46-123.69-124.08-22.61-18.27-45.88-35.62-69.72-52.07-23.94-16.31-48.38-31.81-73.19-46.57,23.37,16.98,46.22,34.59,68.43,52.92,22.31,18.19,44.05,37.01,64.9,56.69h-.01Z"/>
    <path class="cls-16" d="M459.07,306.75c.87-2.45,1.79-4.88,2.85-7.26,4.88-10.8,12.31-20.41,21.19-28.9,17.82-17.12,42.25-28.71,68-36.75,25.84-8.2,53.58-12.19,81.45-14.4,27.95-2.11,56.29-1.88,84.62-.29,56.75,3.01,113.45,12.13,169.51,24.35,56.07,12.36,111.56,28.12,166.37,46.39-26.43-11.63-53.17-22.66-80.24-32.98-27.17-10-54.67-19.2-82.47-27.58-55.64-16.61-112.74-29.04-170.99-36.01-29.15-3.29-58.62-4.87-88.31-4.16-3.58,.11-7.18,.35-10.78,.51-22.67,2.69-45.03,7.11-66.37,14.16-27.04,9.19-52.82,23.06-70.58,43.92-8.82,10.38-15.54,22.27-19.88,35.05-2.36,7.77-3.72,15.81-4.4,23.96h.03Z"/>
    <path class="cls-14" d="M1637.93,909.27c-26.3,17.62-56.35,27.16-86.24,33.56-60.26,11.87-121.57,10.34-181.4,3.26-29.97-3.56-59.71-8.56-89.22-14.58-29.46-6.21-58.66-13.5-87.63-21.56-45.62-13.04-90.5-28.44-134.63-45.74-.96-11.78-4.83-22.72-10.92-32.12-12.42-19.18-33.96-31.9-58.52-31.9-4.02,0-7.95,.42-11.79,1.07-11.75,2-22.5,6.92-31.46,14.02-9.33-4.46-18.58-9.09-27.82-13.72-19.17-9.6-38.22-19.43-57.03-29.72-47.16-25.98-92.92-54.53-137.12-85.4-5.11-3.57-10.3-7.03-15.36-10.67-24.68-17.83-48.89-36.42-72.31-55.98-22.84-19.07-44.93-39.07-65.96-60.27-11.11-11.28-22-22.87-32.55-34.8-29.63-33.51-56.42-69.86-76.58-110.76-6.95-13.76-12.41-28.39-17.11-43.29-4.11-15.13-7.37-30.69-7.8-46.75-.28-16.03,1.72-32.31,6.84-47.85,5.52-15.39,14-29.63,24.73-41.72,.45-.53,.97-.97,1.44-1.49-4.14,3-8.2,6.14-12.12,9.59-12.33,10.92-23.38,24.19-31.03,39.46-7.59,15.26-12.28,31.85-14.16,48.56-2.83,33.48,4.41,65.67,15.98,94.43,11.6,28.95,27.19,55.32,44.43,80.02,19.89,28.15,41.95,54.24,65.37,78.83,17.55,18.43,35.85,36.04,54.69,52.92,14.26,12.71,28.95,24.85,43.82,36.75,31.14,24.91,63.4,48.29,96.5,70.25,12.43,8.28,25,16.35,37.67,24.23,37.14,23.11,75.26,44.58,114.06,64.66,4.14,2.1,8.34,4.08,12.5,6.14,8.35,4.15,16.69,8.31,25.11,12.33-1.69,6.02-2.66,12.34-2.66,18.89,0,38.5,31.21,69.72,69.72,69.72,25.46,0,47.66-13.69,59.83-34.06,53.45,20.4,108.03,37.96,163.72,51.95,57.13,13.95,115.33,24.51,174.6,28.76,59.1,4.15,119.87,2.95,179.37-14.79,14.85-4.29,29.44-10.4,43.61-17.57,14.06-7.58,27.56-16.8,39.6-28.16,11.8-11.67,21.85-25.41,29.07-40.62,5.94-12.75,9.29-26.5,10.73-40.17-9.4,26.56-28.91,49.24-51.98,64.29h.01Z"/>
    <path class="cls-17" d="M1745.15,464.45c-.05-.17-.13-.34-.19-.51-.28-.81-.63-1.61-1.1-2.37-.05-.09-.11-.17-.16-.25-2.84-4.4-8.79-8.07-16.75-10.99-4.94-1.81-10.65-3.34-16.88-4.57,1.56,3.09,2.79,6.36,3.65,9.79,4.57,1.1,8.44,2.32,11.67,3.58,.58,.22,1.16,.45,1.7,.67,.35,.15,.66,.29,.98,.44,4.97,2.22,7.84,4.46,8.49,6.29,.13,.3,.2,.57,.2,.79,0,3.2-7.95,8.12-23.05,11.77-11.44,2.77-26.98,4.81-46.34,4.81s-34.9-2.04-46.34-4.81c-15.1-3.65-23.04-8.57-23.04-11.77,0-1.99,3.12-4.64,9.05-7.24,3.62-1.59,8.27-3.15,13.99-4.53,.87-3.43,2.09-6.7,3.65-9.79-7.93,1.56-15.02,3.6-20.74,6.1-.58,.25-1.09,.53-1.64,.79-1.22,.58-2.37,1.17-3.42,1.79-.84,.49-1.63,1-2.37,1.52-.88,.62-1.65,1.26-2.37,1.91s-1.36,1.31-1.93,2c-.64,.79-1.22,1.58-1.64,2.41-.22,.42-.42,.84-.59,1.27-.46,1.23-.8,2.48-.8,3.79,0,10.27,14.95,17.51,35.5,21.56,12.81,2.53,27.77,3.82,42.69,3.82s29.88-1.3,42.69-3.82c20.55-4.05,35.5-11.29,35.5-21.56,0-.99-.16-1.94-.43-2.88h.02Z"/>
  </g>
</svg>